<svg xmlns="http://www.w3.org/2000/svg" viewBox="0 0 410 404"><path fill="#41d1ff" d="M399.641 59.525 216.18 388.545c-1.483 2.632-5.209 2.615-6.671-.03L10.504 59.5c-1.837-3.23 1.295-7.034 4.93-5.854l186.241 60.984a3.514 3.514 0 0 0 2.177 0l186.351-60.996c3.64-1.192 6.77 2.618 4.928 5.848Z"/><path fill="#bd34fe" d="M292.965.006 156.373 44.31a1.8 1.8 0 0 0-1.192 1.646l-8.637 146.334a1.8 1.8 0 0 0 2.34 1.752l39.548-12.55c1.133-.36 2.323.224 2.754 1.338l11.764 30.076c.44 1.125 1.855 1.48 2.77.68l17.27-15.188c.874-.769 2.215-.663 2.965.23l27.54 32.498c.814.96 2.366.715 2.83-.444l76.943-190.843c.495-1.228-.68-2.492-1.96-2.097l-40.69 12.444c-1.14.349-2.281-.63-2.04-1.807l13.98-68.53c.24-1.178-.89-2.156-2.032-1.805Z"/><path fill="#f6d309" d="M207.423 131.674 173.5 142.62c-.492.16-1.022.087-1.45-.2-.43-.287-.708-.752-.75-1.266L165.92 92.5c-.06-.732.4-1.39 1.1-1.61l87.054-27.15c.94-.293 1.9.36 2 .95l5.49 32.694c.1.6-.28 1.2-.87 1.38l-46.352 14.295c-.57.173-.96.688-.94 1.283l1.22 32.123c.04.929-.84 1.602-1.7 1.323Z"/></svg>
